<?xml version="1.0" encoding="UTF-8"?>
<svg version="1.1" xmlns="http://www.w3.org/2000/svg" width="512" height="512">
<path d="M0 0 C3.10868384 1.91729877 5.4859098 4.36946773 8 7 C15.95373539 14.77089089 24.83728646 18.11491029 36 18 C44.04713218 17.36964131 51.42245364 13.67312966 57.046875 7.8984375 C58.20579711 6.53645639 59.337473 5.15041189 60.4296875 3.734375 C62.81395204 1.1010082 64.89962876 0.15387305 68.40234375 -0.3359375 C72.6046892 -0.40068859 75.27508514 -0.40776461 79 1.6875 C82.35578259 5.56762362 83.20433156 9.745264 84.1875 14.6875 C86.25590949 23.05375329 90.31604816 29.41478427 97.375 34.4375 C105.65817998 39.36829685 113.35993979 40.99681251 123 40 C124.74454476 39.53325776 126.47613949 39.01415408 128.1875 38.4375 C133.02768718 36.81113485 137.07924704 36.44709966 142 38 C145.02711079 40.01807386 146.52046684 41.4804793 147.625 44.98046875 C148.36382832 49.32878125 147.9619843 52.6475276 146.5625 56.8125 C143.64018995 65.55237171 144.17565607 73.90399356 147.6796875 82.39453125 C151.77947735 90.48494496 156.75313556 95.29988592 165 99 C166.2375 99.5878125 166.2375 99.5878125 167.5 100.1875 C169.8412781 100.94841538 172.08612708 101.41048827 174.5 101.875 C178.54406858 102.7242544 181.02569382 104.02569382 184 107 C185.89963518 110.79927037 185.73778892 114.88168645 185 119 C183.08270123 122.10868384 180.63053227 124.4859098 178 127 C170.96930113 134.19612707 167.47703652 142.08984027 166.90625 152.20703125 C167.19928106 160.93691492 170.39999701 168.36295942 176 175 C177.76656034 176.64878965 179.551778 178.1638335 181.484375 179.61328125 C183.98234219 181.89879247 184.87030702 184.0725444 185.3359375 187.40234375 C185.34882813 188.23894531 185.36171875 189.07554687 185.375 189.9375 C185.40335937 190.77152344 185.43171875 191.60554687 185.4609375 192.46484375 C184.81226019 196.03256895 183.64466646 197.51750648 181 200 C178.23837365 200.981784 175.70720664 201.72300791 172.875 202.375 C162.54296395 205.10798311 154.80693764 209.24482572 149.18359375 218.69140625 C144.96752645 226.91482465 143.27433161 235.54996076 145.71484375 244.671875 C145.99457031 245.50203125 146.27429688 246.3321875 146.5625 247.1875 C148.18886515 252.02768718 148.55290034 256.07924704 147 261 C144.98192614 264.02711079 143.5195207 265.52046684 140.01953125 266.625 C135.67121875 267.36382832 132.3524724 266.9619843 128.1875 265.5625 C118.07321207 262.18063283 109.58447837 263.90645778 100 268 C99.01 268.33 98.02 268.66 97 269 C96.25289667 271.72110279 96.25289667 271.72110279 95.8125 275.0625 C92.42268265 292.31017168 82.47486788 306.83956335 68.17578125 316.99609375 C56.1280251 324.59818342 43.59823372 328.58377559 29.375 328.5 C27.82425781 328.4990332 27.82425781 328.4990332 26.2421875 328.49804688 C16.89471441 328.31873273 8.69491602 326.30784849 0 323 C-0.556875 323.6290625 -1.11375 324.258125 -1.6875 324.90625 C-4.1074363 327.62050287 -6.55103683 330.31192547 -9 333 C-9.62261719 333.70253906 -10.24523437 334.40507812 -10.88671875 335.12890625 C-23.83244866 349.02941884 -44.97296159 359.01637155 -63.8840332 360.17700195 C-81.52854946 360.51843851 -96.77145456 360.26132644 -112.984375 352.63671875 C-115.49829871 351.84259169 -116.56103177 352.0234692 -119 353 C-120.55618448 354.03190843 -122.07432503 355.12222325 -123.5625 356.25 C-135.40992762 364.72733824 -148.3068972 368.58629344 -162.8125 368.4375 C-163.86348877 368.42920166 -164.91447754 368.42090332 -165.99731445 368.41235352 C-184.11288546 368.01990301 -199.99556364 360.68773775 -213 348 C-221.83815654 338.04485685 -230.2321477 324.74314369 -230 311 C-230.87398437 310.87044922 -230.87398437 310.87044922 -231.765625 310.73828125 C-251.86928242 307.29284311 -269.99867003 295.01840654 -281.74609375 278.48046875 C-285.63127762 272.67492693 -288.49660823 266.50540101 -291 260 C-291.43441406 258.88753906 -291.86882812 257.77507812 -292.31640625 256.62890625 C-298.83427113 236.62110501 -296.24554734 214.27201668 -287.1875 195.625 C-284.07747734 189.53995216 -280.50127268 184.15876195 -276 179 C-275.22785156 178.03191406 -274.45570313 177.06382812 -273.66015625 176.06640625 C-265.64617411 166.46586919 -254.49003866 160.42156728 -243 156 C-241.88753906 155.56558594 -240.77507812 155.13117188 -239.62890625 154.68359375 C-226.36912432 150.36400531 -208.2538327 149.23928423 -195 154 C-194.72929687 153.278125 -194.45859375 152.55625 -194.1796875 151.8125 C-189.7407142 141.22951729 -181.96039065 133.03151441 -174 125 C-173.27039063 124.2575 -172.54078125 123.515 -171.7890625 122.75 C-152.49579565 104.41770046 -125.50979777 95.16642609 -99.1953125 95.53979492 C-93.65325656 95.53644715 -93.65325656 95.53644715 -89.00390625 92.6015625 C-88.34261719 91.74304688 -87.68132812 90.88453125 -87 90 C-86.319375 89.29875 -85.63875 88.5975 -84.9375 87.875 C-79.5915017 79.94222834 -77.88554398 71.44754758 -79 62 C-79.69626378 59.41928317 -80.52779316 56.91579022 -81.37890625 54.3828125 C-82.41282205 50.41621731 -82.23073021 46.89987637 -81 43 C-78.98192614 39.97288921 -77.5195207 38.47953316 -74.01953125 37.375 C-69.67121875 36.63617168 -66.3524724 37.0380157 -62.1875 38.4375 C-53.44461318 41.3608182 -45.10132051 40.81818376 -36.60546875 37.32421875 C-29.30715827 33.61488254 -23.1978318 28.67240988 -20 21 C-18.90775922 17.17308174 -17.95110708 13.37388864 -17.08984375 9.48828125 C-15.94462907 5.82277332 -14.63009633 3.76339556 -12 1 C-8.20072963 -0.89963518 -4.11831355 -0.73778892 0 0 Z " fill="#E6ECF4" transform="translate(311,0)"/>
<path d="M0 0 C3.10868384 1.91729877 5.4859098 4.36946773 8 7 C15.95373539 14.77089089 24.83728646 18.11491029 36 18 C44.04713218 17.36964131 51.42245364 13.67312966 57.046875 7.8984375 C58.20579711 6.53645639 59.337473 5.15041189 60.4296875 3.734375 C62.81395204 1.1010082 64.89962876 0.15387305 68.40234375 -0.3359375 C72.6046892 -0.40068859 75.27508514 -0.40776461 79 1.6875 C82.35578259 5.56762362 83.20433156 9.745264 84.1875 14.6875 C86.25590949 23.05375329 90.31604816 29.41478427 97.375 34.4375 C105.65817998 39.36829685 113.35993979 40.99681251 123 40 C124.74454476 39.53325776 126.47613949 39.01415408 128.1875 38.4375 C133.02768718 36.81113485 137.07924704 36.44709966 142 38 C145.02711079 40.01807386 146.52046684 41.4804793 147.625 44.98046875 C148.36382832 49.32878125 147.9619843 52.6475276 146.5625 56.8125 C143.64018995 65.55237171 144.17565607 73.90399356 147.6796875 82.39453125 C151.77947735 90.48494496 156.75313556 95.29988592 165 99 C166.2375 99.5878125 166.2375 99.5878125 167.5 100.1875 C169.8412781 100.94841538 172.08612708 101.41048827 174.5 101.875 C178.54406858 102.7242544 181.02569382 104.02569382 184 107 C185.89963518 110.79927037 185.73778892 114.88168645 185 119 C183.08270123 122.10868384 180.63053227 124.4859098 178 127 C170.96930113 134.19612707 167.47703652 142.08984027 166.90625 152.20703125 C167.19928106 160.93691492 170.39999701 168.36295942 176 175 C177.76656034 176.64878965 179.551778 178.1638335 181.484375 179.61328125 C183.98234219 181.89879247 184.87030702 184.0725444 185.3359375 187.40234375 C185.34882813 188.23894531 185.36171875 189.07554687 185.375 189.9375 C185.40335937 190.77152344 185.43171875 191.60554687 185.4609375 192.46484375 C184.81226019 196.03256895 183.64466646 197.51750648 181 200 C178.23837365 200.981784 175.70720664 201.72300791 172.875 202.375 C162.54296395 205.10798311 154.80693764 209.24482572 149.18359375 218.69140625 C144.96752645 226.91482465 143.27433161 235.54996076 145.71484375 244.671875 C145.99457031 245.50203125 146.27429688 246.3321875 146.5625 247.1875 C148.18886515 252.02768718 148.55290034 256.07924704 147 261 C144.98192614 264.02711079 143.5195207 265.52046684 140.01953125 266.625 C135.67121875 267.36382832 132.3524724 266.9619843 128.1875 265.5625 C118.07321207 262.18063283 109.58447837 263.90645778 100 268 C99.01 268.33 98.02 268.66 97 269 C96.25289667 271.72110279 96.25289667 271.72110279 95.8125 275.0625 C92.42268265 292.31017168 82.47486788 306.83956335 68.17578125 316.99609375 C56.1280251 324.59818342 43.59823372 328.58377559 29.375 328.5 C27.82425781 328.4990332 27.82425781 328.4990332 26.2421875 328.49804688 C16.89471441 328.31873273 8.69491602 326.30784849 0 323 C-0.556875 323.6290625 -1.11375 324.258125 -1.6875 324.90625 C-4.1074363 327.62050287 -6.55103683 330.31192547 -9 333 C-9.62261719 333.70253906 -10.24523437 334.40507812 -10.88671875 335.12890625 C-23.83244866 349.02941884 -44.97296159 359.01637155 -63.8840332 360.17700195 C-81.52854946 360.51843851 -96.77145456 360.26132644 -112.984375 352.63671875 C-115.49829871 351.84259169 -116.56103177 352.0234692 -119 353 C-120.55618448 354.03190843 -122.07432503 355.12222325 -123.5625 356.25 C-135.40992762 364.72733824 -148.3068972 368.58629344 -162.8125 368.4375 C-163.86348877 368.42920166 -164.91447754 368.42090332 -165.99731445 368.41235352 C-184.11288546 368.01990301 -199.99556364 360.68773775 -213 348 C-221.83815654 338.04485685 -230.2321477 324.74314369 -230 311 C-230.87398437 310.87044922 -230.87398437 310.87044922 -231.765625 310.73828125 C-251.86928242 307.29284311 -269.99867003 295.01840654 -281.74609375 278.48046875 C-285.63127762 272.67492693 -288.49660823 266.50540101 -291 260 C-291.43441406 258.88753906 -291.86882812 257.77507812 -292.31640625 256.62890625 C-298.83427113 236.62110501 -296.24554734 214.27201668 -287.1875 195.625 C-284.07747734 189.53995216 -280.50127268 184.15876195 -276 179 C-275.22785156 178.03191406 -274.45570313 177.06382812 -273.66015625 176.06640625 C-265.64617411 166.46586919 -254.49003866 160.42156728 -243 156 C-241.88753906 155.56558594 -240.77507812 155.13117188 -239.62890625 154.68359375 C-226.36912432 150.36400531 -208.2538327 149.23928423 -195 154 C-194.72929687 153.278125 -194.45859375 152.55625 -194.1796875 151.8125 C-189.7407142 141.22951729 -181.96039065 133.03151441 -174 125 C-173.27039063 124.2575 -172.54078125 123.515 -171.7890625 122.75 C-152.49579565 104.41770046 -125.50979777 95.16642609 -99.1953125 95.53979492 C-93.65325656 95.53644715 -93.65325656 95.53644715 -89.00390625 92.6015625 C-88.34261719 91.74304688 -87.68132812 90.88453125 -87 90 C-86.319375 89.29875 -85.63875 88.5975 -84.9375 87.875 C-79.5915017 79.94222834 -77.88554398 71.44754758 -79 62 C-79.69626378 59.41928317 -80.52779316 56.91579022 -81.37890625 54.3828125 C-82.41282205 50.41621731 -82.23073021 46.89987637 -81 43 C-78.98192614 39.97288921 -77.5195207 38.47953316 -74.01953125 37.375 C-69.67121875 36.63617168 -66.3524724 37.0380157 -62.1875 38.4375 C-53.44461318 41.3608182 -45.10132051 40.81818376 -36.60546875 37.32421875 C-29.30715827 33.61488254 -23.1978318 28.67240988 -20 21 C-18.90775922 17.17308174 -17.95110708 13.37388864 -17.08984375 9.48828125 C-15.94462907 5.82277332 -14.63009633 3.76339556 -12 1 C-8.20072963 -0.89963518 -4.11831355 -0.73778892 0 0 Z M-168 142 C-174.26519683 149.51639957 -179.20894811 157.74840734 -183.625 166.453125 C-185 169 -185 169 -187 171 C-192.32226295 171.35481753 -195.96440908 170.82138395 -201 169 C-219.47981615 165.82165324 -236.1340565 168.633164 -252 179 C-255.5707123 181.79039066 -258.82330185 184.77122483 -262 188 C-262.57363281 188.57492188 -263.14726562 189.14984375 -263.73828125 189.7421875 C-276.29020881 203.29956663 -279.51280761 220.08798343 -279.08886719 237.77880859 C-278.4526854 253.67985781 -269.82310062 269.15281498 -258.44140625 279.9375 C-248.39251241 288.42680552 -236.81803288 294.04392327 -223.69140625 295.34765625 C-220.21009787 296.19145668 -218.47358959 297.41715292 -216 300 C-215.28515625 302.7421875 -215.28515625 302.7421875 -215.0625 305.875 C-213.66954997 317.35394005 -208.89902043 327.55971907 -201 336 C-200.42894531 336.61230469 -199.85789062 337.22460938 -199.26953125 337.85546875 C-189.14722911 347.63244715 -175.49084629 352.42301503 -161.63061523 352.36572266 C-146.53446933 352.01136067 -134.83341204 345.4055327 -124.51953125 334.7578125 C-121.09126508 332.36599889 -119.11090897 332.47444501 -115 333 C-111.78125 334.390625 -111.78125 334.390625 -108.5 336.25 C-92.2027845 344.88461907 -72.89366405 346.94025864 -55 342 C-37.32670989 336.12142422 -21.606553 326.16712936 -11.5 310.19140625 C-9.8166737 307.73217173 -8.35419625 305.8455217 -6 304 C-1.10918066 303.26201629 2.09759828 304.69723419 6.4375 306.875 C13.61821581 310.45239632 19.88112963 312.36280461 27.9375 312.25 C28.64551758 312.24250732 29.35353516 312.23501465 30.08300781 312.22729492 C44.34042116 311.9328698 56.66649468 305.9219742 66.8984375 296.1953125 C71.97658654 290.85105958 75.09683621 284.7300615 78 278 C78.34289062 277.20980469 78.68578125 276.41960937 79.0390625 275.60546875 C82.8703647 265.09624261 82.37014803 252.18890497 78.32421875 241.83984375 C72.07479325 228.43768347 64.90331657 220.22101416 52.10351562 213.0559082 C48.89709317 211.24880855 47.07823318 210.11734978 45 207 C45.23917268 203.01378869 46.10686598 199.673743 47.5625 196 C50.72513282 186.82523349 50.07665064 176.37904359 46.328125 167.49609375 C40.42618868 156.4039252 31.75820885 149.42175437 20.23046875 144.91796875 C9.29908253 141.81171027 -1.18599136 143.66466605 -11 149 C-11.79019531 149.57105469 -12.58039063 150.14210937 -13.39453125 150.73046875 C-17.10076889 152.53635665 -19.07727236 152.17379749 -23 151 C-25.22099962 149.02838607 -26.95041745 147.25976905 -28.8125 145 C-29.85598974 143.80692651 -30.90290275 142.61683889 -31.953125 141.4296875 C-32.46681641 140.84413086 -32.98050781 140.25857422 -33.50976562 139.65527344 C-48.38383695 123.13394258 -69.4934979 113.33504577 -91.56835938 111.82421875 C-121.09553629 110.34468948 -147.47525411 120.22486097 -168 142 Z " fill="#020101" transform="translate(311,0)"/>
<path d="M0 0 C2.49998473 2.28614956 4.90361768 4.65263055 7.30273438 7.04492188 C8.03363281 7.75261719 8.76453125 8.4603125 9.51757812 9.18945312 C18.33315851 18.31925222 24.87228515 30.88242007 28.30273438 43.04492188 C28.59921875 44.07359375 28.89570313 45.10226563 29.20117188 46.16210938 C35.04761151 69.38695673 30.50123151 93.23352662 18.66943359 113.79736328 C13.07203811 123.04197724 5.83405962 131.40944668 -2.69726562 138.04492188 C-6.12629998 136.62906253 -7.58086716 135.09580553 -9.63476562 132.04492188 C-13.19278867 127.17316724 -17.44417697 124.01063865 -22.51733398 120.84765625 C-24.19726562 119.69726562 -24.19726562 119.69726562 -26.69726562 117.04492188 C-26.61481008 114.10095338 -26.29615933 111.86896565 -25.69726562 109.04492188 C-24.31511893 91.85917521 -27.83958007 76.41163757 -38.94726562 62.79492188 C-48.50147497 52.57170882 -62.66672832 45.50954251 -76.74023438 44.70898438 C-78.12149815 44.67981319 -79.50319655 44.66718928 -80.88476562 44.66992188 C-81.61655029 44.66935791 -82.34833496 44.66879395 -83.10229492 44.66821289 C-90.74182218 44.82035496 -97.79428423 46.82223698 -104.74804688 49.97460938 C-106.69726562 50.04492188 -106.69726562 50.04492188 -109.00195312 48.08789062 C-109.85015625 47.14558594 -110.69835937 46.20328125 -111.57226562 45.23242188 C-116.76875621 39.66835706 -122.45502375 35.41296815 -128.72851562 31.13867188 C-130.99521671 29.54005111 -132.85861151 28.09370789 -134.69726562 26.04492188 C-121.28433554 4.7742807 -103.1352306 -11.53977316 -78.38476562 -18.26757812 C-51.06128304 -23.36178674 -21.42317184 -18.86199563 0 0 Z " fill="#FDD255" transform="translate(400.697265625,83.955078125)"/>
<path d="M0 0 C3.54340898 1.31307177 6.57429201 2.89819732 9.75 4.9375 C21.66719291 12.20840639 35.51174538 13.88835063 49.125 10.875 C55.27681097 9.16390026 60.56517313 6.29695659 66 3 C66.92941406 2.443125 67.85882813 1.88625 68.81640625 1.3125 C69.89728516 0.6628125 69.89728516 0.6628125 71 0 C71.40089844 0.82242187 71.80179688 1.64484375 72.21484375 2.4921875 C80.28486098 18.33943223 90.99004609 28.23819375 108 34 C112.97506598 35.12094672 117.80595502 35.11834541 122.875 35.0625 C123.65875 35.05798828 124.4425 35.05347656 125.25 35.04882812 C127.16670014 35.03714093 129.08336048 35.01920908 131 35 C131.00410889 35.5983667 131.00821777 36.1967334 131.01245117 36.81323242 C131.22889405 54.84379009 133.55968085 68.83974695 146.125 82.625 C151.76596633 88.03881333 159.02691926 91.58834952 166 95 C165.195625 96.3921875 165.195625 96.3921875 164.375 97.8125 C164.0140625 98.45316406 163.653125 99.09382813 163.28125 99.75390625 C162.36618518 101.35805951 161.42573052 102.94783763 160.46875 104.52734375 C153.49341657 116.44353836 152.17516868 129.63257629 155.125 143.125 C156.83609974 149.27681097 159.70304341 154.56517313 163 160 C163.556875 160.92941406 164.11375 161.85882813 164.6875 162.81640625 C165.120625 163.53699219 165.55375 164.25757813 166 165 C165.17757812 165.40089844 164.35515625 165.80179688 163.5078125 166.21484375 C147.55148164 174.34041178 137.96127914 184.99491687 132 202 C130.6874303 206.72363048 130.8876102 211.45016357 130.9375 216.3125 C130.94426758 217.56643555 130.94426758 217.56643555 130.95117188 218.84570312 C130.96289452 220.89716649 130.98082797 222.94859273 131 225 C130.42145264 225.01981934 129.84290527 225.03963867 129.24682617 225.06005859 C114.02058052 225.59205764 114.02058052 225.59205764 99 228 C98.01 223.38 97.02 218.76 96 214 C97.44375 212.88625 98.8875 211.7725 100.375 210.625 C121.14689245 193.86120511 135.4406582 170.25836569 138.47802734 143.42285156 C141.42820302 112.52249304 133.49614405 85.94755184 114.125 61.6875 C97.73056474 42.63245314 72.18527408 29.40522329 47.09765625 27.14501953 C34.37912161 26.26573536 22.31538201 26.5050943 10 30 C8.95070313 30.26683594 7.90140625 30.53367187 6.8203125 30.80859375 C-7.37417228 34.7129447 -19.69730501 41.66658861 -31 51 C-32.18142578 51.93585938 -32.18142578 51.93585938 -33.38671875 52.890625 C-42.91019754 60.80192676 -50.02764934 71.24491323 -56 82 C-57.79236067 81.52343588 -59.58386897 81.04366502 -61.375 80.5625 C-62.37273437 80.29566406 -63.37046875 80.02882813 -64.3984375 79.75390625 C-67 79 -67 79 -69 78 C-68.72027344 77.44570312 -68.44054687 76.89140625 -68.15234375 76.3203125 C-65.97334905 71.93277741 -63.92766802 67.50395389 -62 63 C-61.67257813 62.23816406 -61.34515625 61.47632813 -61.0078125 60.69140625 C-58.00023346 52.42772479 -58.74534341 43.65832416 -59 35 C-57.93523437 35.04640625 -56.87046875 35.0928125 -55.7734375 35.140625 C-40.65061868 35.59974186 -26.52172641 32.84939788 -14.53125 22.96484375 C-7.77860684 16.58359597 -2.39013648 9.08251863 0 0 Z " fill="#EEA449" transform="translate(308,22)"/>
<path d="M0 0 C0.33 0.66 0.66 1.32 1 2 C0.04222656 1.855625 -0.91554687 1.71125 -1.90234375 1.5625 C-31.55998422 -2.67107733 -59.57681934 1.86242287 -84.25244141 19.58837891 C-98.16337994 30.08333013 -107.59963779 43.2742303 -115 59 C-115.71285156 58.86722656 -116.42570312 58.73445313 -117.16015625 58.59765625 C-119.15265534 58.23026409 -121.14621408 57.86858669 -123.140625 57.51171875 C-125.19980353 57.14320456 -127.25687635 56.76285352 -129.3125 56.375 C-149.45756858 54.32634896 -168.72784347 58.69097615 -185 71 C-197.18358331 81.41446025 -204.52829286 93.68395044 -209 109 C-209.24621094 109.84304687 -209.49242187 110.68609375 -209.74609375 111.5546875 C-212.0283745 121.40784439 -211.17285588 131.95175449 -211 142 C-214.00092504 139.20300122 -215.16350321 136.60548233 -216.625 132.75 C-217.05039063 131.65171875 -217.47578125 130.5534375 -217.9140625 129.421875 C-222.95200283 113.54692632 -220.5402825 96.56744031 -213.6875 81.75 C-211.00649939 76.69860252 -207.73198171 72.32000403 -204 68 C-203.42765625 67.32066406 -202.8553125 66.64132813 -202.265625 65.94140625 C-194.63024056 57.57185023 -183.89457709 51.87632596 -173 49 C-171.93265625 48.65195313 -170.8653125 48.30390625 -169.765625 47.9453125 C-165.60547886 46.90096046 -161.94895313 46.695539 -157.6875 46.75 C-156.94419434 46.75459229 -156.20088867 46.75918457 -155.43505859 46.76391602 C-148.66785343 46.87510731 -142.4254789 47.8581737 -136 50 C-134.045138 50.2315988 -134.045138 50.2315988 -132 50.25 C-131.319375 50.27578125 -130.63875 50.3015625 -129.9375 50.328125 C-127.30125897 49.88166483 -126.62415304 49.12287394 -125 47 C-123.95471789 44.91795709 -122.96132122 42.8096166 -122 40.6875 C-112.08558115 19.97611337 -93.82732304 4.71601994 -72.66796875 -3.71484375 C-49.11686871 -11.96650713 -22.346735 -12.06387649 0 0 Z " fill="#EFF9FB" transform="translate(252,121)"/>
<path d="M0 0 C5.78079655 3.34322734 7.81912255 8.98937827 10.5 14.8125 C11.22183472 16.36203369 11.22183472 16.36203369 11.95825195 17.94287109 C23.93940658 44.06394695 23.93940658 44.06394695 20.37109375 57.33984375 C17.75436052 63.45337745 12.55773573 68.20919342 6.671875 71.171875 C0.19785035 73.17844404 -8.17277577 73.2761327 -14.4375 70.5 C-20.28957609 66.96358413 -24.92582784 61.5146534 -27 55 C-28.93576283 40.36970831 -22.50429397 27.70167752 -16.5 14.8125 C-16.03746826 13.80783691 -15.57493652 12.80317383 -15.09838867 11.76806641 C-11.78745965 4.8720065 -8.70365429 -1.45060905 0 0 Z " fill="#000000" transform="translate(295,440)"/>
<path d="M0 0 C5.78079655 3.34322734 7.81912255 8.98937827 10.5 14.8125 C11.22183472 16.36203369 11.22183472 16.36203369 11.95825195 17.94287109 C23.93940658 44.06394695 23.93940658 44.06394695 20.37109375 57.33984375 C17.75436052 63.45337745 12.55773573 68.20919342 6.671875 71.171875 C0.19785035 73.17844404 -8.17277577 73.2761327 -14.4375 70.5 C-20.28957609 66.96358413 -24.92582784 61.5146534 -27 55 C-28.93576283 40.36970831 -22.50429397 27.70167752 -16.5 14.8125 C-16.03746826 13.80783691 -15.57493652 12.80317383 -15.09838867 11.76806641 C-11.78745965 4.8720065 -8.70365429 -1.45060905 0 0 Z " fill="#000000" transform="translate(143,440)"/>
<path d="M0 0 C5.78079655 3.34322734 7.81912255 8.98937827 10.5 14.8125 C11.22183472 16.36203369 11.22183472 16.36203369 11.95825195 17.94287109 C23.93940658 44.06394695 23.93940658 44.06394695 20.37109375 57.33984375 C17.75436052 63.45337745 12.55773573 68.20919342 6.671875 71.171875 C0.19785035 73.17844404 -8.17277577 73.2761327 -14.4375 70.5 C-20.28957609 66.96358413 -24.92582784 61.5146534 -27 55 C-28.93576283 40.36970831 -22.50429397 27.70167752 -16.5 14.8125 C-16.03746826 13.80783691 -15.57493652 12.80317383 -15.09838867 11.76806641 C-11.78745965 4.8720065 -8.70365429 -1.45060905 0 0 Z " fill="#000000" transform="translate(371,376)"/>
<path d="M0 0 C5.78079655 3.34322734 7.81912255 8.98937827 10.5 14.8125 C11.22183472 16.36203369 11.22183472 16.36203369 11.95825195 17.94287109 C23.93940658 44.06394695 23.93940658 44.06394695 20.37109375 57.33984375 C17.75436052 63.45337745 12.55773573 68.20919342 6.671875 71.171875 C0.19785035 73.17844404 -8.17277577 73.2761327 -14.4375 70.5 C-20.28957609 66.96358413 -24.92582784 61.5146534 -27 55 C-28.93576283 40.36970831 -22.50429397 27.70167752 -16.5 14.8125 C-16.03746826 13.80783691 -15.57493652 12.80317383 -15.09838867 11.76806641 C-11.78745965 4.8720065 -8.70365429 -1.45060905 0 0 Z " fill="#000000" transform="translate(219,376)"/>
<path d="M0 0 C5.78079655 3.34322734 7.81912255 8.98937827 10.5 14.8125 C11.22183472 16.36203369 11.22183472 16.36203369 11.95825195 17.94287109 C23.93940658 44.06394695 23.93940658 44.06394695 20.37109375 57.33984375 C17.75436052 63.45337745 12.55773573 68.20919342 6.671875 71.171875 C0.19785035 73.17844404 -8.17277577 73.2761327 -14.4375 70.5 C-20.28957609 66.96358413 -24.92582784 61.5146534 -27 55 C-28.93576283 40.36970831 -22.50429397 27.70167752 -16.5 14.8125 C-16.03746826 13.80783691 -15.57493652 12.80317383 -15.09838867 11.76806641 C-11.78745965 4.8720065 -8.70365429 -1.45060905 0 0 Z " fill="#000000" transform="translate(67,376)"/>
<path d="M0 0 C0.66 0 1.32 0 2 0 C9.3372356 17.03046428 9.3372356 17.03046428 9 24 C6.61234617 27.54530418 5.1855322 28.75301412 1 29.625 C-3.1855322 28.75301412 -4.61234617 27.54530418 -7 24 C-7.4122901 15.47933801 -3.31068857 7.68444228 0 0 Z " fill="#DBE0E8" transform="translate(291,467)"/>
<path d="M0 0 C0.66 0 1.32 0 2 0 C9.3372356 17.03046428 9.3372356 17.03046428 9 24 C6.61234617 27.54530418 5.1855322 28.75301412 1 29.625 C-3.1855322 28.75301412 -4.61234617 27.54530418 -7 24 C-7.4122901 15.47933801 -3.31068857 7.68444228 0 0 Z " fill="#DBE0E8" transform="translate(139,467)"/>
<path d="M0 0 C0.66 0 1.32 0 2 0 C9.3372356 17.03046428 9.3372356 17.03046428 9 24 C6.61234617 27.54530418 5.1855322 28.75301412 1 29.625 C-3.1855322 28.75301412 -4.61234617 27.54530418 -7 24 C-7.4122901 15.47933801 -3.31068857 7.68444228 0 0 Z " fill="#DBE0E8" transform="translate(367,403)"/>
<path d="M0 0 C0.66 0 1.32 0 2 0 C9.3372356 17.03046428 9.3372356 17.03046428 9 24 C6.61234617 27.54530418 5.1855322 28.75301412 1 29.625 C-3.1855322 28.75301412 -4.61234617 27.54530418 -7 24 C-7.4122901 15.47933801 -3.31068857 7.68444228 0 0 Z " fill="#DBE0E8" transform="translate(215,403)"/>
<path d="M0 0 C0.66 0 1.32 0 2 0 C9.3372356 17.03046428 9.3372356 17.03046428 9 24 C6.61234617 27.54530418 5.1855322 28.75301412 1 29.625 C-3.1855322 28.75301412 -4.61234617 27.54530418 -7 24 C-7.4122901 15.47933801 -3.31068857 7.68444228 0 0 Z " fill="#DBE0E8" transform="translate(63,403)"/>
</svg>
